<?xml version="1.0" standalone="no"?>
<!DOCTYPE svg PUBLIC "-//W3C//DTD SVG 20010904//EN"
 "http://www.w3.org/TR/2001/REC-SVG-20010904/DTD/svg10.dtd">
<svg version="1.0" xmlns="http://www.w3.org/2000/svg"
 width="550.000000pt" height="550.000000pt" viewBox="0 0 550.000000 550.000000"
 preserveAspectRatio="xMidYMid meet">
<metadata>
Created by potrace 1.14, written by Peter Selinger 2001-2017
</metadata>
<g transform="translate(0.000000,550.000000) scale(0.100000,-0.100000)"
fill="#000000" stroke="none">
<path d="M2903 5405 c1 -25 -2 -45 -7 -45 -5 0 -3 -6 3 -13 6 -8 8 -16 5 -19
-3 -3 -7 -66 -9 -139 -4 -128 -7 -154 -19 -224 -2 -16 -7 -48 -11 -70 -3 -22
-10 -67 -16 -100 -5 -33 -12 -70 -14 -82 -2 -12 -8 -31 -15 -42 -6 -12 -8 -21
-5 -21 4 0 -2 -20 -34 -105 -5 -11 -18 -53 -31 -93 -13 -40 -26 -74 -29 -76
-3 -2 -37 -7 -76 -11 -38 -3 -86 -8 -105 -10 -115 -13 -136 -16 -150 -19 -8
-1 -36 -6 -62 -11 -27 -4 -48 -12 -48 -17 0 -5 -4 -7 -9 -4 -25 16 -336 -111
-469 -190 -33 -21 -60 -30 -74 -26 -63 16 -180 98 -226 157 -27 36 -32 50 -30
89 2 25 6 46 11 46 4 0 7 7 7 15 0 8 13 36 29 62 16 27 32 58 36 71 5 19 3 22
-19 22 -98 0 -318 -201 -342 -313 -17 -76 0 -207 27 -207 6 0 7 -4 4 -10 -3
-5 3 -15 15 -22 11 -7 20 -17 20 -23 0 -10 85 -105 94 -105 4 0 57 -44 89 -74
11 -11 15 -21 9 -25 -16 -10 -88 -139 -91 -163 -1 -4 -13 -28 -26 -53 -14 -25
-26 -48 -26 -52 -1 -5 -6 -19 -11 -33 -22 -55 -68 -191 -66 -198 1 -4 -3 -25
-9 -47 -7 -22 -14 -59 -17 -83 -3 -24 -7 -46 -10 -50 -18 -31 -28 -434 -13
-542 12 -86 18 -114 25 -120 4 -3 7 -16 7 -30 -1 -25 -3 -26 -65 -19 -18 2
-148 -11 -170 -16 -8 -3 -32 -7 -53 -10 -52 -9 -107 -33 -114 -50 -6 -18 15
-47 28 -39 5 3 9 1 9 -3 0 -5 14 -10 31 -11 18 -1 36 -5 42 -9 5 -3 -22 -35
-60 -72 -70 -66 -153 -168 -153 -189 0 -5 -4 -12 -9 -14 -24 -9 -103 -201
-115 -278 -3 -19 -8 -46 -11 -60 -4 -14 -7 -46 -9 -71 -2 -26 -6 -50 -8 -55
-12 -20 7 -303 22 -344 1 -3 2 -13 1 -22 -1 -10 1 -18 6 -18 4 0 9 -12 9 -28
2 -35 80 -253 95 -262 6 -4 10 -9 10 -11 -4 -11 22 -69 30 -69 5 0 9 -5 9 -12
0 -10 86 -156 99 -168 4 -3 19 -23 36 -45 25 -34 78 -87 181 -184 48 -44 125
-92 219 -136 183 -84 247 -110 295 -119 14 -2 37 -9 53 -15 15 -6 27 -8 27 -5
0 2 9 0 19 -6 11 -5 50 -12 86 -14 36 -2 69 -6 72 -9 3 -4 14 -2 24 4 11 5 19
6 19 1 0 -10 61 -14 232 -16 71 0 128 -5 128 -10 0 -5 6 -4 13 1 6 5 23 8 37
6 55 -7 118 -8 113 -1 -2 5 6 4 19 -1 34 -13 919 -4 932 10 3 2 27 4 55 3 28
-1 51 1 51 5 0 3 42 7 93 8 50 0 121 4 157 7 116 10 165 16 180 19 40 9 136
40 145 47 6 4 21 11 35 15 98 29 269 138 373 237 16 16 31 28 33 28 12 0 32
28 26 35 -4 5 -2 5 4 2 6 -3 33 19 60 49 27 30 60 66 74 80 14 13 20 24 15 24
-5 0 1 7 13 16 12 8 20 20 17 25 -4 5 -2 9 3 9 11 0 66 80 55 80 -5 0 0 5 10
11 16 9 46 65 53 98 1 8 9 18 16 22 7 5 9 9 5 9 -5 0 0 12 11 28 10 15 29 56
41 92 12 36 25 72 29 80 3 8 6 20 7 25 1 6 4 24 8 40 16 68 18 83 23 145 9
126 4 319 -10 395 -17 91 -57 215 -69 215 -6 0 -7 3 -4 6 14 14 -77 149 -143
212 -43 42 -147 112 -165 112 -12 0 -30 29 -22 36 2 2 17 5 33 5 81 4 120 30
96 65 -12 17 -94 53 -137 59 -22 3 -60 8 -84 11 -24 4 -66 7 -95 8 -50 1 -51
2 -51 31 -1 17 5 53 12 80 8 28 15 100 17 161 2 61 6 117 10 123 4 6 4 11 -1
11 -4 0 -8 21 -9 48 -1 52 -14 243 -19 282 -2 14 -4 38 -4 53 -1 16 -5 26 -11
22 -6 -3 -7 1 -4 10 7 18 -27 175 -38 175 -5 0 -8 11 -8 25 0 14 -5 25 -11 25
-5 0 -8 4 -5 9 3 4 -4 28 -15 52 -12 23 -22 48 -23 55 -3 18 -50 108 -58 112
-5 2 -8 8 -8 14 0 6 -15 36 -34 67 -46 75 -47 88 -11 109 92 53 185 158 200
226 1 6 5 18 8 26 3 8 6 24 6 35 0 11 1 32 2 47 0 27 -48 140 -63 146 -4 2 -8
8 -8 13 0 15 -57 77 -132 145 -37 34 -91 64 -115 64 -17 0 -21 -5 -18 -22 3
-13 9 -32 14 -43 17 -34 27 -88 25 -140 -1 -59 -5 -75 -21 -93 -7 -7 -16 -19
-20 -25 -5 -7 -28 -28 -53 -47 -25 -19 -47 -37 -50 -40 -3 -3 -14 -7 -25 -8
-11 -2 -24 -8 -30 -12 -19 -16 -60 -14 -85 3 -13 9 -28 17 -33 17 -5 0 -23 10
-40 22 -18 13 -33 22 -35 20 -1 -1 -24 7 -50 18 -26 12 -55 22 -64 23 -10 1
-18 5 -18 9 0 4 -9 8 -20 8 -11 0 -28 4 -38 9 -29 16 -196 62 -267 75 -16 3
-43 8 -60 11 -16 3 -56 7 -88 9 -64 4 -93 19 -58 31 12 3 21 11 21 16 0 5 4 9
10 9 43 0 205 208 185 239 -3 5 -1 11 5 13 15 5 38 144 27 164 -6 11 -6 15 1
11 8 -6 11 112 4 186 -3 26 -19 21 -24 -8 -3 -15 -1 -22 5 -18 6 4 7 1 1 -8
-4 -8 -9 -19 -10 -26 -1 -6 -5 -31 -10 -55 -4 -24 -8 -57 -8 -75 -1 -17 -4
-29 -8 -27 -4 3 -10 -8 -14 -23 -9 -36 -77 -176 -94 -193 -3 -3 -21 -26 -40
-51 -37 -50 -156 -149 -179 -149 -9 0 -5 11 13 34 14 19 26 38 26 43 0 5 10
24 23 43 24 35 88 187 114 270 8 25 16 80 19 122 2 43 4 81 5 85 1 5 0 13 -1
18 -2 6 -4 24 -5 40 -13 180 -36 318 -60 366 -23 44 -33 42 -32 -6z m27 -5 c0
-5 -4 -10 -10 -10 -5 0 -10 5 -10 10 0 6 5 10 10 10 6 0 10 -4 10 -10z"/>
</g>
</svg>
